<svg width="14" height="15" viewBox="0 0 14 15" fill="none" xmlns="http://www.w3.org/2000/svg">
<path d="M0.507111 4.5123C0.436682 4.58454 0.396814 4.68272 0.396242 4.78531C0.395781 4.83623 0.405377 4.8867 0.424441 4.93365C0.443505 4.98059 0.471636 5.02302 0.507111 5.05832L6.73163 11.496C6.76613 11.5321 6.80723 11.5608 6.85255 11.5804C6.89786 11.6 6.94649 11.6101 6.99561 11.6101C7.04472 11.6101 7.09335 11.6 7.13866 11.5804C7.18398 11.5608 7.22508 11.5321 7.25958 11.496L13.4854 5.05832C13.522 5.02293 13.5513 4.98028 13.5717 4.93292C13.592 4.88556 13.6029 4.83445 13.6037 4.78265C13.6046 4.73084 13.5953 4.67938 13.5765 4.63135C13.5577 4.58331 13.5298 4.53968 13.4944 4.50304C13.4589 4.4664 13.4168 4.43751 13.3703 4.41808C13.3239 4.39865 13.2741 4.38908 13.224 4.38995C13.1739 4.39081 13.1245 4.40209 13.0787 4.42311C13.0329 4.44413 12.9917 4.47446 12.9575 4.5123L6.99561 10.6769L1.03506 4.5123C1.00047 4.47631 0.95934 4.44775 0.914037 4.42826C0.868734 4.40877 0.820152 4.39873 0.771086 4.39873C0.72202 4.39873 0.673438 4.40877 0.628135 4.42826C0.582832 4.44775 0.541702 4.47631 0.507111 4.5123Z" fill="#A5A5A5"/>
<path fill-rule="evenodd" clip-rule="evenodd" d="M2.5745e-05 4.78251C0.00130279 4.5835 0.0783868 4.38939 0.220205 4.24339C0.290449 4.17057 0.374941 4.11166 0.469412 4.07101C0.564372 4.03016 0.666958 4.00884 0.771086 4.00884C0.875212 4.00884 0.977799 4.03016 1.07276 4.07101C1.16746 4.11175 1.25212 4.17085 1.32246 4.24391L6.99564 10.1113L12.6667 4.24739C12.7351 4.17325 12.818 4.11257 12.9112 4.06977C13.0069 4.02585 13.111 4.00194 13.2171 4.00011C13.3232 3.99828 13.4281 4.01859 13.5253 4.05927C13.6225 4.09992 13.7094 4.1598 13.7814 4.23429C13.8534 4.30874 13.9092 4.39631 13.9463 4.49132C13.9835 4.5863 14.0015 4.68741 13.9999 4.78883C13.9983 4.89025 13.9769 4.99078 13.9367 5.08459C13.8974 5.17611 13.8406 5.25999 13.7687 5.33098L7.54843 11.7629L7.54736 11.764C7.4772 11.8372 7.39267 11.8965 7.29806 11.9374C7.20291 11.9785 7.10004 12 6.99561 12C6.89117 12 6.7883 11.9785 6.69315 11.9374C6.59854 11.8965 6.51401 11.8372 6.44386 11.764L6.44279 11.7629L0.222206 5.3293C0.150326 5.25692 0.0942982 5.17139 0.0565034 5.07833C0.0182546 4.98414 -0.000800257 4.88355 2.5745e-05 4.78251ZM0.507111 4.5123C0.541702 4.47631 0.582832 4.44775 0.628135 4.42826C0.673438 4.40877 0.72202 4.39873 0.771086 4.39873C0.820152 4.39873 0.868734 4.40877 0.914037 4.42826C0.95934 4.44775 1.00047 4.47631 1.03506 4.5123L6.99561 10.6769L12.9575 4.5123C12.9917 4.47446 13.0329 4.44413 13.0787 4.42311C13.1245 4.40209 13.1739 4.39081 13.224 4.38995C13.2741 4.38908 13.3239 4.39865 13.3703 4.41808C13.4168 4.43751 13.4589 4.4664 13.4944 4.50304C13.5298 4.53968 13.5577 4.58331 13.5765 4.63135C13.5953 4.67938 13.6046 4.73084 13.6037 4.78265C13.6029 4.83445 13.592 4.88556 13.5717 4.93292C13.5513 4.98028 13.522 5.02293 13.4854 5.05832L7.25958 11.496C7.22508 11.5321 7.18398 11.5608 7.13866 11.5804C7.09335 11.6 7.04472 11.6101 6.99561 11.6101C6.94649 11.6101 6.89786 11.6 6.85255 11.5804C6.80723 11.5608 6.76613 11.5321 6.73163 11.496L0.507111 5.05832C0.471636 5.02302 0.443505 4.98059 0.424441 4.93365C0.405377 4.8867 0.395781 4.83623 0.396242 4.78531C0.396814 4.68272 0.436682 4.58454 0.507111 4.5123Z" fill="#A5A5A5"/>
</svg>
