<svg width="15" height="15" viewBox="0 0 15 15" fill="none" xmlns="http://www.w3.org/2000/svg">
<path fill-rule="evenodd" clip-rule="evenodd" d="M6.14034 5.26385L1.87795 1.00149C1.47498 0.598507 0.82188 0.599563 0.41999 1.00147C0.0181442 1.40337 0.0169917 2.05652 0.419916 2.45945L4.68481 6.72428C5.22201 7.26148 5.22201 8.13785 4.68481 8.67506L0.41998 12.9399C0.0180867 13.3418 0.0180867 13.996 0.41998 14.3979C0.821865 14.7998 1.47606 14.7998 1.87795 14.3979L6.14278 10.133C6.67998 9.59584 7.55636 9.59584 8.09356 10.133L12.3584 14.3979C12.7613 14.8008 13.4145 14.7998 13.8164 14.3979C14.2183 13.996 14.2193 13.3428 13.8164 12.9399L9.55153 8.67506C9.01434 8.13785 9.01434 7.26148 9.55153 6.72428L13.8164 2.45945C14.2183 2.05756 14.2183 1.40337 13.8164 1.00147C13.4145 0.599583 12.7603 0.599583 12.3584 1.00147L8.09599 5.26388C7.55831 5.80951 6.67801 5.8095 6.14034 5.26385Z" fill="black"/>
</svg>
