<svg width="15" height="11" viewBox="0 0 15 11" fill="none" xmlns="http://www.w3.org/2000/svg">
<path fill-rule="evenodd" clip-rule="evenodd" d="M13.49 0.219441C13.2295 0.230028 12.9874 0.337413 12.8118 0.519738L12.8062 0.525519C11.2326 2.10197 9.8842 3.51817 8.53744 4.93276C7.5341 5.98661 6.53167 7.03952 5.43764 8.15705L5.14731 8.45363L2.11846 5.89627C1.70684 5.54589 1.0862 5.59593 0.734022 6.01307L0.732808 6.01446C0.382412 6.42609 0.4325 7.04671 0.849635 7.39888L0.864101 7.41109L0.869268 7.41628L4.57222 10.5507C4.96055 10.8774 5.53788 10.8545 5.90028 10.4963C7.43296 8.96116 8.74435 7.5796 10.0517 6.2023L10.0612 6.1923C11.3714 4.81197 12.6782 3.43543 14.1944 1.91923L14.1986 1.91503C14.591 1.533 14.6007 0.912354 14.225 0.526453L14.2184 0.519686C14.03 0.317803 13.7638 0.209489 13.49 0.219441Z" fill="white"/>
</svg>
