<svg width="15" height="15" viewBox="0 0 15 15" fill="none" xmlns="http://www.w3.org/2000/svg">
<g clip-path="url(#clip0_19_151)">
<path fill-rule="evenodd" clip-rule="evenodd" d="M7.5 1.5C4.18629 1.5 1.5 4.18629 1.5 7.5C1.5 10.8137 4.18629 13.5 7.5 13.5C10.8137 13.5 13.5 10.8137 13.5 7.5C13.5 4.18629 10.8137 1.5 7.5 1.5ZM0.5 7.5C0.5 3.63401 3.63401 0.5 7.5 0.5C11.366 0.5 14.5 3.63401 14.5 7.5C14.5 11.366 11.366 14.5 7.5 14.5C3.63401 14.5 0.5 11.366 0.5 7.5Z" fill="#393939"/>
<path d="M7.35513 11.2272V3.95454H7.82103V11.2272H7.35513ZM8.81253 6.21025C8.78223 5.9413 8.65723 5.73295 8.43753 5.58525C8.21783 5.4356 7.94133 5.36079 7.60798 5.36079C7.36933 5.36079 7.16293 5.39867 6.98868 5.47443C6.81443 5.5483 6.67903 5.65055 6.58243 5.78125C6.48773 5.91005 6.44038 6.0568 6.44038 6.2216C6.44038 6.35985 6.47258 6.47915 6.53698 6.57955C6.60323 6.6799 6.68943 6.7642 6.79548 6.8324C6.90343 6.89865 7.01898 6.95455 7.14208 7C7.26518 7.04355 7.38353 7.07955 7.49718 7.10795L8.06538 7.2557C8.25098 7.30115 8.44133 7.3627 8.63638 7.44035C8.83148 7.518 9.01233 7.62025 9.17903 7.74715C9.34568 7.87405 9.48013 8.03125 9.58243 8.21875C9.68658 8.40625 9.73868 8.6307 9.73868 8.89205C9.73868 9.2216 9.65343 9.5142 9.48298 9.7699C9.31443 10.0255 9.06918 10.2272 8.74718 10.375C8.42713 10.5227 8.03978 10.5966 7.58528 10.5966C7.14963 10.5966 6.77278 10.5274 6.45458 10.3892C6.13638 10.2509 5.88733 10.0549 5.70743 9.80115C5.52748 9.54545 5.42806 9.2424 5.40912 8.89205H6.28978C6.30683 9.10225 6.37503 9.27745 6.49433 9.4176C6.61558 9.55585 6.76993 9.6591 6.95743 9.72725C7.14683 9.79355 7.35418 9.8267 7.57958 9.8267C7.82768 9.8267 8.04833 9.7879 8.24153 9.71025C8.43658 9.6307 8.58998 9.52085 8.70173 9.3807C8.81348 9.23865 8.86933 9.0729 8.86933 8.8835C8.86933 8.71115 8.82013 8.5701 8.72163 8.46025C8.62503 8.3504 8.49338 8.25945 8.32673 8.1875C8.16198 8.11555 7.97543 8.0521 7.76708 7.99715L7.07958 7.80965C6.61368 7.68275 6.24433 7.4962 5.97163 7.25C5.70078 7.0038 5.56538 6.67805 5.56538 6.27275C5.56538 5.9375 5.65628 5.6449 5.83808 5.39488C6.01993 5.14488 6.26613 4.95075 6.57673 4.8125C6.88733 4.67235 7.23773 4.60227 7.62788 4.60227C8.02183 4.60227 8.36933 4.6714 8.67048 4.80966C8.97353 4.94791 9.21213 5.13826 9.38638 5.38068C9.56063 5.6212 9.65153 5.89775 9.65913 6.21025H8.81253Z" fill="#393939"/>
</g>
<defs>
<clipPath id="clip0_19_151">
<rect width="14" height="14" fill="white" transform="translate(0.5 0.5)"/>
</clipPath>
</defs>
</svg>
