<svg width="14" height="15" viewBox="0 0 14 15" fill="none" xmlns="http://www.w3.org/2000/svg">
<g clip-path="url(#clip0_19_158)">
<path fill-rule="evenodd" clip-rule="evenodd" d="M7 1.5C3.68629 1.5 1 4.18629 1 7.5C1 10.8137 3.68629 13.5 7 13.5C10.3137 13.5 13 10.8137 13 7.5C13 4.18629 10.3137 1.5 7 1.5ZM0 7.5C0 3.63401 3.13401 0.5 7 0.5C10.866 0.5 14 3.63401 14 7.5C14 11.366 10.866 14.5 7 14.5C3.13401 14.5 0 11.366 0 7.5Z" fill="#393939"/>
<path d="M6.5 8.8267V8.77275C6.5038 8.42045 6.53885 8.14015 6.6051 7.9318C6.6733 7.7235 6.7699 7.5549 6.8949 7.42615C7.0199 7.29735 7.17045 7.1799 7.3466 7.07385C7.46025 7.0019 7.5625 6.9214 7.6534 6.8324C7.7443 6.74335 7.8163 6.6411 7.8693 6.52555C7.92235 6.41005 7.94885 6.2822 7.94885 6.14205C7.94885 5.9735 7.9091 5.82765 7.82955 5.70455C7.75 5.58145 7.64395 5.48674 7.51135 5.42046C7.3807 5.35228 7.23485 5.31818 7.07385 5.31818C6.92805 5.31818 6.78885 5.34849 6.65625 5.40909C6.52365 5.4697 6.41385 5.5644 6.3267 5.6932C6.2396 5.8201 6.1894 5.9839 6.17615 6.18465H5.3125C5.32575 5.84375 5.41195 5.55585 5.571 5.32103C5.7301 5.08428 5.94035 4.90531 6.2017 4.78409C6.46495 4.66288 6.7557 4.60228 7.07385 4.60228C7.42235 4.60228 7.72725 4.66762 7.98865 4.7983C8.25 4.92709 8.45265 5.10796 8.5966 5.34091C8.7424 5.57195 8.81535 5.84185 8.81535 6.15055C8.81535 6.3627 8.7822 6.554 8.7159 6.72445C8.6496 6.893 8.5549 7.04355 8.4318 7.17615C8.3106 7.3087 8.16475 7.42615 7.9943 7.5284C7.83335 7.6288 7.70265 7.73295 7.60225 7.8409C7.5038 7.94885 7.4318 8.0767 7.38635 8.22445C7.3409 8.37215 7.3163 8.5549 7.3125 8.77275V8.8267H6.5ZM6.929 10.554C6.77365 10.554 6.64015 10.4991 6.5284 10.3892C6.41665 10.2775 6.3608 10.143 6.3608 9.9858C6.3608 9.8305 6.41665 9.6979 6.5284 9.58805C6.64015 9.47635 6.77365 9.42045 6.929 9.42045C7.0824 9.42045 7.21495 9.47635 7.3267 9.58805C7.44035 9.6979 7.49715 9.8305 7.49715 9.9858C7.49715 10.09 7.47065 10.1856 7.4176 10.2728C7.3665 10.358 7.2983 10.4262 7.21305 10.4773C7.12785 10.5284 7.03315 10.554 6.929 10.554Z" fill="#393939"/>
</g>
<defs>
<clipPath id="clip0_19_158">
<rect width="14" height="14" fill="white" transform="translate(0 0.5)"/>
</clipPath>
</defs>
</svg>
