<svg width="125" height="45" viewBox="0 0 125 45" fill="none" xmlns="http://www.w3.org/2000/svg">
<g clip-path="url(#clip0_7_31)">
<mask id="mask0_7_31" style="mask-type:luminance" maskUnits="userSpaceOnUse" x="0" y="0" width="125" height="45">
<path d="M124.5 0H0.5V45H124.5V0Z" fill="white"/>
</mask>
<g mask="url(#mask0_7_31)">
<path d="M2.09004 0.350558L3.72296 1.70995V7.83693H12.55L13.7504 9.34822L12.5461 10.7855H3.72296V16.6437L2.09004 17.9992L0.5 16.6437V1.70605L2.09004 0.350558ZM6.86407 15.7907H13.5945L14.7208 17.2241L13.5204 18.7393H6.86407L5.77676 17.341L6.86407 15.7907ZM7.0979 0H13.5165L14.7169 1.5113L13.5165 2.94858H7.17584L5.89368 1.55414L7.0979 0ZM42.87 2.90963L44.308 4.45988L42.87 6.01402H21.1355L19.7364 4.45988L21.1355 2.90963H42.87ZM18.5712 9.34822L19.9274 8.18359L21.2875 9.34822V11.0582C21.2875 13.9288 22.063 16.2932 25.5198 16.2932H26.2174C29.3234 16.2932 31.0304 14.1976 31.0304 10.9374V9.30927L32.3515 8.14464L33.7116 9.27032V11.0543C33.7116 13.9639 34.5651 16.1374 37.905 16.1374H38.4857C41.7476 16.1374 42.3283 13.6523 42.3672 10.9374V9.19242L43.6884 8.10569L45.0836 9.23137V10.9764C45.0446 14.739 44.0352 19.047 38.6026 19.047H38.0219C34.799 19.047 33.053 17.6097 32.3554 15.8258C31.5409 17.6487 29.3663 19.2418 26.4161 19.2418H25.7147C20.1261 19.2418 18.614 15.8686 18.5751 11.1322V9.34822H18.5712ZM29.6742 37.4357L28.8986 35.3402L30.9174 34.7598L38.0219 37.9772V31.3438L39.46 30.1402L40.9331 31.3438V39.3755L43.5715 40.5791L44.308 42.5188L42.2503 43.255L29.6742 37.4357ZM42.3283 23.2732L44.2691 24.1652L43.6494 26.1439L26.1784 34.2534L24.0817 33.4394L24.9352 31.4217L42.3283 23.2732ZM17.1214 34.3313L18.8284 35.7297C18.6725 40.657 14.4402 43.255 9.4362 43.255H8.92957C6.44318 43.255 3.53589 42.3241 1.67305 40.5401L1.86401 38.5614L3.68788 38.3277C5.04799 39.4923 6.94981 40.3064 8.73471 40.3064H9.28031C12.6592 40.3064 15.2586 38.912 15.5314 35.6128L17.1214 34.3313ZM15.5275 31.1101C15.3716 27.6941 12.8111 26.3386 9.27642 26.3386H8.73081C6.63414 26.3386 5.04409 27.1527 3.68398 28.3173L1.86401 28.0836L1.66915 26.1049C3.53199 24.282 6.1314 23.429 8.85163 23.429H9.39333C14.4402 23.429 18.6725 25.992 18.8245 30.9932L17.1175 32.3526L15.5275 31.1101Z" fill="white"/>
<path d="M61.3657 5.88946H57.3204C57.4101 6.67627 57.9596 7.25663 58.7663 7.25663C59.2573 7.25663 59.7094 7.06188 59.9744 6.66458L61.2605 6.69964C60.8045 7.71236 59.8614 8.24599 58.7663 8.24599C57.2386 8.24599 56.1123 7.10862 56.1123 5.5389C56.1123 3.96918 57.2152 2.8396 58.7312 2.8396C60.1108 2.8396 61.3618 3.76274 61.3618 5.87777V5.88946H61.3657ZM57.3204 5.0598H60.0874C60.029 4.40153 59.495 3.82895 58.7429 3.82895C57.9829 3.82895 57.4568 4.33142 57.3204 5.0598Z" fill="white"/>
<path d="M65.5439 4.36258C65.1581 3.98865 64.5891 3.80558 64.1994 3.80558C63.7551 3.80558 63.5291 4.04318 63.5291 4.28468C63.5291 4.56902 63.6538 4.70535 64.0084 4.82999L64.897 5.1377C65.8518 5.46879 66.2532 5.99073 66.2532 6.62952C66.2532 7.44749 65.6257 8.24599 64.3397 8.24599C63.4979 8.24599 62.6639 7.90322 62.1768 7.4397L62.8471 6.56331C63.2329 6.94892 63.8369 7.23326 64.3163 7.23326C64.7723 7.23326 65.0684 7.03851 65.0684 6.7308C65.0684 6.39971 64.9087 6.26339 64.3397 6.07253L63.4862 5.7765C62.7691 5.52721 62.3716 4.98969 62.3716 4.35479C62.3716 3.60304 63.0224 2.8396 64.25 2.8396C64.8541 2.8396 65.6608 3.0772 66.1986 3.57967L65.5439 4.36258Z" fill="white"/>
<path d="M69.9321 7.25273C70.5245 7.25273 70.9805 6.96839 71.2416 6.50097L72.2198 7.00344C71.8106 7.76688 70.9103 8.24208 69.9321 8.24208C68.4045 8.24208 67.2119 7.1164 67.2119 5.54278C67.2119 3.96137 68.4083 2.83569 69.9321 2.83569C70.9103 2.83569 71.8106 3.31479 72.2198 4.07433L71.2416 4.5768C70.9805 4.10939 70.5245 3.82505 69.9321 3.82505C68.9968 3.82505 68.3616 4.56511 68.3616 5.54278C68.3616 6.52045 68.9968 7.25273 69.9321 7.25273Z" fill="white"/>
<path d="M75.7856 2.8396C77.3016 2.8396 78.5292 3.96528 78.5292 5.5389C78.5292 7.10862 77.2977 8.24599 75.7856 8.24599C74.2696 8.24599 73.0537 7.10862 73.0537 5.5389C73.0537 3.96528 74.2696 2.8396 75.7856 2.8396ZM75.7856 3.82895C74.8503 3.82895 74.2034 4.55734 74.2034 5.535C74.2034 6.51267 74.8542 7.25274 75.7856 7.25274C76.7209 7.25274 77.3679 6.51267 77.3679 5.535C77.3679 4.55734 76.7209 3.82895 75.7856 3.82895Z" fill="white"/>
<path d="M80.9997 0.140137H79.874V8.1056H80.9997V0.140137Z" fill="white"/>
<path d="M85.6143 4.65861C85.6143 4.11329 85.2051 3.82895 84.5426 3.82895C83.9853 3.82895 83.4826 4.06655 83.0968 4.37427L82.5628 3.53293C82.9954 3.159 83.7242 2.8396 84.6245 2.8396C85.9807 2.8396 86.7523 3.59135 86.7523 4.68198V8.10966H85.6143V7.57603C85.3181 8.05513 84.679 8.24599 84.1451 8.24599C82.972 8.24599 82.29 7.57603 82.29 6.62952C82.29 5.62849 82.9954 5.0598 84.1451 5.0598H85.248C85.5091 5.0598 85.6143 4.94684 85.6143 4.7404V4.65861ZM85.6143 6.23223V5.78818C85.513 5.86609 85.3298 5.90114 85.0687 5.90114H84.3867C83.7827 5.90114 83.4748 6.16211 83.4748 6.59447C83.4748 6.99177 83.771 7.35791 84.3867 7.35791C85.022 7.35791 85.6143 7.02682 85.6143 6.23223Z" fill="white"/>
<path d="M57.5862 19.7443H56.46V11.7788H57.5862V15.374C57.859 14.8598 58.5761 14.4742 59.3283 14.4742C60.8209 14.4742 61.9004 15.5999 61.9004 17.1696C61.9004 18.7393 60.7975 19.8806 59.3049 19.8806C58.5644 19.8806 57.8707 19.5184 57.5862 19.0042V19.7443ZM57.5512 17.1735C57.5512 18.1512 58.202 18.9029 59.1451 18.9029C60.0804 18.9029 60.7391 18.1512 60.7391 17.1735C60.7391 16.1958 60.0804 15.4558 59.1451 15.4558C58.1981 15.4558 57.5512 16.1958 57.5512 17.1735Z" fill="white"/>
<path d="M66.1475 15.6155H65.5551C64.8263 15.6155 64.347 16.0362 64.347 17.1969V19.7443H63.2207V14.6106H64.3236V15.4285C64.5185 14.8599 65.029 14.5171 65.7461 14.5171C65.8708 14.5171 66.0072 14.5288 66.1436 14.5521V15.6155H66.1475Z" fill="white"/>
<path d="M68.6772 19.7443H67.5392V15.5454H66.7637V14.6106H68.6772V19.7443ZM68.0419 11.9619C68.4862 11.9619 68.8487 12.3281 68.8487 12.7721C68.8487 13.2161 68.4862 13.5706 68.0419 13.5706C67.5977 13.5706 67.243 13.2161 67.243 12.7721C67.243 12.3242 67.5977 11.9619 68.0419 11.9619Z" fill="white"/>
<path d="M71.7874 12.5422V14.6144H72.9955V15.5492H71.7874V18.4277C71.7874 18.7822 72.0485 18.8484 72.3096 18.8484C72.7071 18.8484 73.0033 18.8016 73.0033 18.8016V19.7482C73.0033 19.7482 72.446 19.8066 72.0251 19.8066C71.4093 19.8066 70.6455 19.6819 70.6455 18.6809V15.5492H69.8037V14.6144H70.6494V12.5422H71.7874Z" fill="white"/>
<path d="M77.1846 16.2971C77.1846 15.7518 76.7754 15.4675 76.1129 15.4675C75.5556 15.4675 75.0529 15.7051 74.6671 16.0128L74.1332 15.1714C74.5657 14.7975 75.2945 14.4781 76.1948 14.4781C77.551 14.4781 78.3226 15.2299 78.3226 16.3205V19.7482H77.1846V19.2145C76.8885 19.6936 76.2493 19.8845 75.7154 19.8845C74.5424 19.8845 73.8604 19.2145 73.8604 18.268C73.8604 17.267 74.5657 16.6983 75.7154 16.6983H76.8183C77.0794 16.6983 77.1846 16.5854 77.1846 16.3789V16.2971ZM75.579 11.7788H76.9235L78.0069 13.6679H76.8456L76.2532 12.6085L75.6608 13.6679H74.5112L75.579 11.7788ZM77.1846 17.8668V17.4228C77.0833 17.5007 76.9001 17.5358 76.639 17.5358H75.957C75.353 17.5358 75.0451 17.7967 75.0451 18.2291C75.0451 18.6264 75.3413 18.9925 75.957 18.9925C76.5923 18.9964 77.1846 18.6653 77.1846 17.8668Z" fill="white"/>
<path d="M81.0345 14.9065C81.0345 15.0545 81.0345 15.1441 81.0229 15.2492C81.4554 14.7468 82.0478 14.4741 82.6986 14.4741C83.9067 14.4741 84.6121 15.2259 84.6121 16.3983V19.7442H83.4742V16.558C83.4742 15.8296 83.0299 15.4868 82.4609 15.4868C81.9699 15.4868 81.4944 15.7361 81.0618 16.2386V19.7442H79.9355V14.6104H81.0423V14.9065H81.0345Z" fill="white"/>
<path d="M87.5864 19.7443H86.4484V15.5454H85.6729V14.6106H87.5864V19.7443ZM86.9472 11.9619C87.3915 11.9619 87.7539 12.3281 87.7539 12.7721C87.7539 13.2161 87.3915 13.5706 86.9472 13.5706C86.5029 13.5706 86.1483 13.2161 86.1483 12.7721C86.1522 12.3242 86.5029 11.9619 86.9472 11.9619Z" fill="white"/>
<path d="M91.6196 18.8912C92.212 18.8912 92.668 18.6068 92.9291 18.1394L93.9073 18.6419C93.4981 19.4053 92.5978 19.8805 91.6196 19.8805C90.0919 19.8805 88.8994 18.7548 88.8994 17.1812C88.8994 15.5998 90.0958 14.4741 91.6196 14.4741C92.5978 14.4741 93.4981 14.9532 93.9073 15.7128L92.9291 16.2152C92.668 15.7478 92.212 15.4635 91.6196 15.4635C90.6843 15.4635 90.0491 16.2035 90.0491 17.1812C90.0491 18.1589 90.6843 18.8912 91.6196 18.8912Z" fill="white"/>
<path d="M98.0655 16.297C98.0655 15.7517 97.6563 15.4674 96.9938 15.4674C96.4365 15.4674 95.9337 15.705 95.5479 16.0127L95.014 15.1714C95.4466 14.7974 96.1754 14.478 97.0756 14.478C98.4318 14.478 99.2035 15.2298 99.2035 16.3204V19.7481H98.0655V19.2145C97.7693 19.6936 97.1302 19.8844 96.5963 19.8844C95.4232 19.8844 94.7412 19.2145 94.7412 18.268C94.7412 17.2669 95.4466 16.6982 96.5963 16.6982H97.6992C97.9603 16.6982 98.0655 16.5853 98.0655 16.3788V16.297ZM98.0655 17.8668V17.4227C97.9642 17.5006 97.781 17.5357 97.5199 17.5357H96.8379C96.2338 17.5357 95.9259 17.7966 95.9259 18.229C95.9259 18.6263 96.2221 18.9924 96.8379 18.9924C97.4731 18.9963 98.0655 18.6653 98.0655 17.8668Z" fill="white"/>
<path d="M107.45 18.9925C107.177 19.5067 106.483 19.8806 105.731 19.8806C104.239 19.8806 103.147 18.7432 103.147 17.1696C103.147 15.5999 104.219 14.4742 105.708 14.4742C106.472 14.4742 107.177 14.8598 107.462 15.374C107.45 15.0234 107.45 14.5988 107.45 14.2015V11.7749H108.588V19.7404H107.45V18.9925ZM104.305 17.1735C104.305 18.1512 104.956 18.9029 105.899 18.9029C106.834 18.9029 107.493 18.1512 107.493 17.1735C107.493 16.1958 106.83 15.4558 105.899 15.4558C104.956 15.4558 104.305 16.1958 104.305 17.1735Z" fill="white"/>
<path d="M115.163 17.5279H111.121C111.211 18.3147 111.76 18.8951 112.567 18.8951C113.058 18.8951 113.514 18.7003 113.775 18.303L115.061 18.3381C114.605 19.3508 113.662 19.8844 112.567 19.8844C111.039 19.8844 109.913 18.747 109.913 17.1773C109.913 15.6076 111.02 14.478 112.532 14.478C113.912 14.478 115.163 15.4012 115.163 17.5162V17.5279ZM111.117 16.6943H113.884C113.826 16.0361 113.292 15.4635 112.54 15.4635C111.78 15.4674 111.254 15.966 111.117 16.6943Z" fill="white"/>
<path d="M59.3702 27.9355C59.3702 27.3901 58.961 27.1058 58.2985 27.1058C57.7412 27.1058 57.2384 27.3434 56.8526 27.6511L56.3187 26.8098C56.7513 26.4359 57.4801 26.1165 58.3803 26.1165C59.7365 26.1165 60.5082 26.8682 60.5082 27.9588V31.3865H59.3702V30.849C59.074 31.3281 58.4349 31.5189 57.9009 31.5189C56.7279 31.5189 56.0459 30.849 56.0459 29.9025C56.0459 28.9014 56.7513 28.3328 57.9009 28.3328H59.0038C59.265 28.3328 59.3702 28.2198 59.3702 28.0134V27.9355ZM59.3702 29.5052V29.0611C59.2689 29.139 59.0857 29.1741 58.8246 29.1741H58.1426C57.5385 29.1741 57.2306 29.4351 57.2306 29.8674C57.2306 30.2647 57.5268 30.6309 58.1426 30.6309C58.7778 30.6309 59.3702 30.2998 59.3702 29.5052Z" fill="white"/>
<path d="M65.0449 27.25H64.4526C63.7238 27.25 63.2444 27.6707 63.2444 28.8314V31.3788H62.1182V26.249H63.2211V27.067C63.4159 26.4983 63.9264 26.1555 64.6435 26.1555C64.7682 26.1555 64.9046 26.1672 65.041 26.1906V27.25H65.0449Z" fill="white"/>
<path d="M67.6526 24.1768V26.2489H68.8607V27.1838H67.6526V30.0622C67.6526 30.4167 67.9137 30.4829 68.1748 30.4829C68.5723 30.4829 68.8685 30.4362 68.8685 30.4362V31.3827C68.8685 31.3827 68.3112 31.4411 67.8903 31.4411C67.2746 31.4411 66.5107 31.3165 66.5107 30.3154V27.1877H65.6689V26.2528H66.5107V24.1807H67.6526V24.1768Z" fill="white"/>
<path d="M75.0454 29.1627H71.004C71.0937 29.9495 71.6432 30.5298 72.4499 30.5298C72.9409 30.5298 73.3969 30.3351 73.658 29.9378L74.9441 29.9728C74.4881 30.9856 73.545 31.5192 72.4499 31.5192C70.9222 31.5192 69.7959 30.3818 69.7959 28.8121C69.7959 27.2424 70.9027 26.1128 72.4148 26.1128C73.7944 26.1128 75.0454 27.0359 75.0454 29.151V29.1627ZM71.004 28.333H73.771C73.7126 27.6747 73.1786 27.1021 72.4265 27.1021C71.6626 27.1021 71.1404 27.6046 71.004 28.333Z" fill="white"/>
<path d="M79.2265 27.6394C78.8407 27.2655 78.2717 27.0824 77.882 27.0824C77.4377 27.0824 77.2117 27.32 77.2117 27.5615C77.2117 27.8459 77.3364 27.9822 77.691 28.1068L78.5796 28.4146C79.5344 28.7456 79.9358 29.2676 79.9358 29.9064C79.9358 30.7243 79.3084 31.5228 78.0223 31.5228C77.1805 31.5228 76.3504 31.1801 75.8594 30.7166L76.5297 29.8402C76.9155 30.2258 77.5196 30.5101 77.9989 30.5101C78.4549 30.5101 78.7511 30.3154 78.7511 30.0077C78.7511 29.6766 78.5913 29.5402 78.0223 29.3494L77.1688 29.0534C76.4517 28.8041 76.0542 28.2665 76.0542 27.6316C76.0542 26.8799 76.7012 26.1165 77.9327 26.1165C78.5367 26.1165 79.3434 26.3541 79.8812 26.8565L79.2265 27.6394Z" fill="white"/>
<path d="M86.2876 30.5298C86.88 30.5298 87.336 30.2455 87.5971 29.7781L88.5752 30.2805C88.166 31.044 87.2658 31.5192 86.2876 31.5192C84.7599 31.5192 83.5674 30.3935 83.5674 28.8199C83.5674 27.2385 84.7638 26.1089 86.2876 26.1089C87.2658 26.1089 88.166 26.588 88.5752 27.3514L87.5971 27.8539C87.336 27.3865 86.88 27.1021 86.2876 27.1021C85.3523 27.1021 84.7171 27.8422 84.7171 28.8199C84.7171 29.7975 85.3523 30.5298 86.2876 30.5298Z" fill="white"/>
<path d="M92.7461 27.25H92.1537C91.425 27.25 90.9456 27.6707 90.9456 28.8314V31.3788H89.8193V26.249H90.9222V27.067C91.1171 26.4983 91.6276 26.1555 92.3447 26.1555C92.4694 26.1555 92.6058 26.1672 92.7422 26.1906V27.25H92.7461Z" fill="white"/>
<path d="M95.2748 31.3827H94.1369V27.1838H93.3613V26.249H95.2748V31.3827ZM94.6357 23.5964C95.08 23.5964 95.4424 23.9626 95.4424 24.4066C95.4424 24.8507 95.08 25.2012 94.6357 25.2012C94.1914 25.2012 93.8368 24.8507 93.8368 24.4066C93.8407 23.9626 94.1914 23.5964 94.6357 23.5964Z" fill="white"/>
<path d="M99.8546 27.9355C99.8546 27.3901 99.4454 27.1058 98.7828 27.1058C98.2255 27.1058 97.7228 27.3434 97.337 27.6511L96.8031 26.8098C97.2357 26.4359 97.9644 26.1165 98.8647 26.1165C100.221 26.1165 100.993 26.8682 100.993 27.9588V31.3865H99.8546V30.849C99.5584 31.3281 98.9192 31.5189 98.3853 31.5189C97.2123 31.5189 96.5303 30.849 96.5303 29.9025C96.5303 28.9014 97.2357 28.3328 98.3853 28.3328H99.4882C99.7493 28.3328 99.8546 28.2198 99.8546 28.0134V27.9355ZM99.8546 29.5052V29.0611C99.7532 29.139 99.5701 29.1741 99.309 29.1741H98.627C98.0229 29.1741 97.715 29.4351 97.715 29.8674C97.715 30.2647 98.0112 30.6309 98.627 30.6309C99.2622 30.6309 99.8546 30.2998 99.8546 29.5052Z" fill="white"/>
<path d="M104.044 24.1768V26.2489H105.252V27.1838H104.044V30.0622C104.044 30.4167 104.305 30.4829 104.566 30.4829C104.964 30.4829 105.26 30.4362 105.26 30.4362V31.3827C105.26 31.3827 104.703 31.4411 104.282 31.4411C103.666 31.4411 102.902 31.3165 102.902 30.3154V27.1877H102.061V26.2528H102.902V24.1807H104.044V24.1768Z" fill="white"/>
<path d="M107.894 31.3827H106.756V27.1838H105.98V26.249H107.894V31.3827ZM107.255 23.5964C107.699 23.5964 108.062 23.9626 108.062 24.4066C108.062 24.8507 107.699 25.2012 107.255 25.2012C106.811 25.2012 106.456 24.8507 106.456 24.4066C106.46 23.9626 106.811 23.5964 107.255 23.5964Z" fill="white"/>
<path d="M111.62 30.2999L112.996 26.249H114.204L112.314 31.3828H110.88L109.056 26.249H110.322L111.62 30.2999Z" fill="white"/>
<path d="M118.124 27.9355C118.124 27.3901 117.715 27.1058 117.052 27.1058C116.495 27.1058 115.992 27.3434 115.607 27.6511L115.073 26.8098C115.505 26.4359 116.234 26.1165 117.134 26.1165C118.49 26.1165 119.262 26.8682 119.262 27.9588V31.3865H118.124V30.849C117.828 31.3281 117.189 31.5189 116.655 31.5189C115.482 31.5189 114.8 30.849 114.8 29.9025C114.8 28.9014 115.505 28.3328 116.655 28.3328H117.758C118.019 28.3328 118.124 28.2198 118.124 28.0134V27.9355ZM118.124 29.5052V29.0611C118.023 29.139 117.84 29.1741 117.578 29.1741H116.896C116.292 29.1741 115.985 29.4351 115.985 29.8674C115.985 30.2647 116.281 30.6309 116.896 30.6309C117.532 30.6309 118.124 30.2998 118.124 29.5052Z" fill="white"/>
<path d="M123.794 27.6394C123.408 27.2655 122.839 27.0824 122.449 27.0824C122.005 27.0824 121.779 27.32 121.779 27.5615C121.779 27.8459 121.904 27.9822 122.258 28.1068L123.147 28.4146C124.102 28.7456 124.503 29.2676 124.503 29.9064C124.503 30.7243 123.876 31.5228 122.59 31.5228C121.748 31.5228 120.918 31.1801 120.427 30.7166L121.097 29.8402C121.483 30.2258 122.087 30.5101 122.566 30.5101C123.022 30.5101 123.318 30.3154 123.318 30.0077C123.318 29.6766 123.159 29.5402 122.59 29.3494L121.736 29.0534C121.019 28.8041 120.622 28.2665 120.622 27.6316C120.622 26.8799 121.269 26.1165 122.5 26.1165C123.104 26.1165 123.911 26.3541 124.449 26.8565L123.794 27.6394Z" fill="white"/>
<path d="M63.0493 42.9981H61.5217L60.6682 42.0633C60.1771 42.7449 59.4601 43.1344 58.4702 43.1344C57.0594 43.1344 56.1475 42.1334 56.1475 40.961C56.1475 40.0378 56.6502 39.2783 57.5271 38.5694C56.9931 37.9111 56.8334 37.4437 56.8334 36.8867C56.8334 35.5779 57.9051 34.9197 58.9612 34.9197C59.9628 34.9197 60.9527 35.5117 60.9527 36.6958C60.9527 36.9919 60.8825 37.3463 60.6682 37.6735L59.6783 37.4904C59.7913 37.2295 59.8615 36.9997 59.8615 36.8205C59.8615 36.2869 59.464 35.9207 58.9612 35.9207C58.3221 35.9207 57.983 36.3648 57.983 36.8789C57.983 37.2879 58.1779 37.6969 58.665 38.2578C59.3587 39.0407 60.4305 40.1936 60.5552 40.33C60.8747 39.773 61.1358 39.1459 61.2839 38.7252H62.57C62.227 39.6366 61.7594 40.478 61.3502 41.1479L63.0455 42.9591V42.9981H63.0493ZM58.1662 39.3679C57.5738 39.9833 57.3478 40.3923 57.3478 40.9493C57.3478 41.666 57.9402 42.0983 58.5442 42.0983C59.0586 42.0983 59.6159 41.8257 59.9121 41.2804L58.1662 39.3679Z" fill="white"/>
<path d="M68.2796 35.8154V37.8876H69.4877V38.8224H68.2796V41.7009C68.2796 42.0554 68.5407 42.1216 68.8018 42.1216C69.1993 42.1216 69.4955 42.0748 69.4955 42.0748V43.0213C69.4955 43.0213 68.9382 43.0798 68.5173 43.0798C67.9015 43.0798 67.1377 42.9551 67.1377 41.9541V38.8263H66.2959V37.8915H67.1416V35.8193H68.2796V35.8154Z" fill="white"/>
<path d="M75.6723 40.8011H71.631C71.7206 41.5879 72.2701 42.1683 73.0768 42.1683C73.5679 42.1683 74.0238 41.9735 74.2849 41.5762L75.571 41.6113C75.115 42.624 74.1719 43.1576 73.0768 43.1576C71.5491 43.1576 70.4229 42.0202 70.4229 40.4505C70.4229 38.8808 71.5296 37.7512 73.0417 37.7512C74.4213 37.7512 75.6723 38.6744 75.6723 40.7894V40.8011ZM71.6271 39.9714H74.3941C74.3356 39.3132 73.8017 38.7406 73.0495 38.7406C72.2896 38.7406 71.7635 39.243 71.6271 39.9714Z" fill="white"/>
<path d="M79.2925 42.1682C79.8849 42.1682 80.3408 41.8839 80.6019 41.4165L81.5801 41.919C81.1709 42.6824 80.2707 43.1576 79.2925 43.1576C77.7648 43.1576 76.5723 42.0319 76.5723 40.4583C76.5723 38.8769 77.7687 37.7473 79.2925 37.7473C80.2707 37.7473 81.1709 38.2264 81.5801 38.9898L80.6019 39.4923C80.3408 39.0249 79.8849 38.7406 79.2925 38.7406C78.3572 38.7406 77.7219 39.4806 77.7219 40.4583C77.7219 41.436 78.3611 42.1682 79.2925 42.1682Z" fill="white"/>
<path d="M83.931 38.1836C83.931 38.3316 83.931 38.4212 83.9193 38.5263C84.3519 38.0239 84.9443 37.7512 85.5951 37.7512C86.8032 37.7512 87.5086 38.503 87.5086 39.6754V43.0213H86.3707V39.8351C86.3707 39.1067 85.9264 38.7639 85.3574 38.7639C84.8664 38.7639 84.3909 39.0132 83.9583 39.5157V43.0213H82.832V37.8875H83.9349V38.1836H83.931Z" fill="white"/>
<path d="M91.4907 37.7512C93.0067 37.7512 94.2343 38.8769 94.2343 40.4505C94.2343 42.0202 93.0028 43.1576 91.4907 43.1576C89.9747 43.1576 88.7588 42.0202 88.7588 40.4505C88.7588 38.8769 89.9786 37.7512 91.4907 37.7512ZM91.4907 38.7406C90.5554 38.7406 89.9085 39.469 89.9085 40.4466C89.9085 41.4243 90.5593 42.1644 91.4907 42.1644C92.426 42.1644 93.073 41.4243 93.073 40.4466C93.0769 39.469 92.426 38.7406 91.4907 38.7406Z" fill="white"/>
<path d="M96.7087 35.052H95.583V43.0175H96.7087V35.052Z" fill="white"/>
<path d="M100.786 37.7512C102.302 37.7512 103.529 38.8769 103.529 40.4505C103.529 42.0202 102.298 43.1576 100.786 43.1576C99.2696 43.1576 98.0537 42.0202 98.0537 40.4505C98.0537 38.8769 99.2735 37.7512 100.786 37.7512ZM100.786 38.7406C99.8503 38.7406 99.2034 39.469 99.2034 40.4466C99.2034 41.4243 99.8542 42.1644 100.786 42.1644C101.721 42.1644 102.368 41.4243 102.368 40.4466C102.372 39.469 101.721 38.7406 100.786 38.7406Z" fill="white"/>
<path d="M109.933 37.8875V43.4303C109.933 44.2287 109.535 45 108.315 45H106.164V44.0652H108.144C108.452 44.0652 108.795 43.9834 108.795 43.5198V42.2539C108.522 42.7564 107.828 43.1303 107.076 43.1303C105.595 43.1303 104.5 42.0163 104.5 40.4466C104.5 38.8652 105.572 37.7473 107.064 37.7473C107.816 37.7473 108.522 38.1329 108.806 38.6471C108.806 38.5341 108.795 38.4095 108.795 38.2498V37.8836H109.933V37.8875ZM107.248 42.1682C108.191 42.1682 108.841 41.4282 108.841 40.4505C108.841 39.4612 108.191 38.7211 107.248 38.7211C106.312 38.7211 105.665 39.4612 105.665 40.4505C105.661 41.4282 106.312 42.1682 107.248 42.1682Z" fill="white"/>
<path d="M112.964 43.0214H111.826V38.8186H111.051V37.8838H112.964V43.0214ZM112.325 35.2351C112.769 35.2351 113.132 35.6012 113.132 36.0453C113.132 36.4893 112.769 36.8399 112.325 36.8399C111.881 36.8399 111.526 36.4893 111.526 36.0453C111.53 35.6012 111.881 35.2351 112.325 35.2351Z" fill="white"/>
<path d="M117.544 39.5702C117.544 39.0249 117.135 38.7406 116.472 38.7406C115.915 38.7406 115.412 38.9782 115.026 39.2859L114.493 38.4445C114.925 38.0706 115.654 37.7512 116.554 37.7512C117.91 37.7512 118.682 38.503 118.682 39.5936V43.0213H117.544V42.4877C117.248 42.9667 116.609 43.1576 116.075 43.1576C114.902 43.1576 114.22 42.4877 114.22 41.5411C114.22 40.5401 114.925 39.9714 116.075 39.9714H117.178C117.439 39.9714 117.544 39.8585 117.544 39.652V39.5702ZM117.544 41.1438V40.6998C117.443 40.7777 117.26 40.8128 116.998 40.8128H116.316C115.712 40.8128 115.404 41.0737 115.404 41.5061C115.404 41.9034 115.701 42.2695 116.316 42.2695C116.952 42.2695 117.544 41.9384 117.544 41.1438Z" fill="white"/>
</g>
</g>
<defs>
<clipPath id="clip0_7_31">
<rect width="124" height="45" fill="white" transform="translate(0.5)"/>
</clipPath>
</defs>
</svg>
