<svg width="10" height="12" viewBox="0 0 10 12" fill="none" xmlns="http://www.w3.org/2000/svg">
<path fill-rule="evenodd" clip-rule="evenodd" d="M0.752722 0.201377C0.602839 0.210777 0.462192 0.277014 0.359481 0.386572C0.256769 0.496131 0.199734 0.640756 0.200013 0.790933L0.200014 10.7915C0.200724 10.8951 0.228722 10.9967 0.281196 11.086C0.333761 11.1755 0.409023 11.2496 0.499374 11.3007C0.589731 11.3518 0.691971 11.3781 0.795757 11.377C0.89955 11.3759 1.00122 11.3475 1.09048 11.2945L9.51196 6.29425C9.59976 6.24199 9.67247 6.16781 9.72297 6.07899C9.77346 5.99017 9.80001 5.88976 9.80001 5.78758C9.80001 5.68541 9.77346 5.585 9.72297 5.49618C9.67247 5.40736 9.59976 5.33318 9.51196 5.28092L1.09129 0.281148C0.989359 0.22142 0.870615 0.193506 0.752722 0.201377ZM1.37909 1.82139L8.05675 5.79191L1.37909 9.75337V1.82139Z" fill="white"/>
</svg>
